<svg width="10" height="10" viewBox="0 0 10 10" fill="none" xmlns="http://www.w3.org/2000/svg">
<path fill-rule="evenodd" clip-rule="evenodd" d="M0.248959 0.248959C0.580905 -0.0829864 1.1191 -0.0829864 1.45104 0.248959L5 3.79792L8.54896 0.248959C8.88091 -0.0829864 9.4191 -0.0829864 9.75104 0.248959C10.083 0.580905 10.083 1.1191 9.75104 1.45104L6.20208 5L9.75104 8.54896C10.083 8.88091 10.083 9.4191 9.75104 9.75104C9.4191 10.083 8.88091 10.083 8.54896 9.75104L5 6.20208L1.45104 9.75104C1.1191 10.083 0.580905 10.083 0.248959 9.75104C-0.0829864 9.4191 -0.0829864 8.88091 0.248959 8.54896L3.79792 5L0.248959 1.45104C-0.0829864 1.1191 -0.0829864 0.580905 0.248959 0.248959Z" fill="#717171"/>
</svg>
